<svg width="12" height="14" viewBox="0 0 12 14" fill="none" xmlns="http://www.w3.org/2000/svg">
<path d="M10.4366 0.556641H0.903585C0.529074 0.556641 0.222656 0.832625 0.222656 1.17373V13.1248C0.222656 13.4659 0.443958 13.5527 0.719734 13.3139L5.39431 9.27651C5.50326 9.18348 5.6837 9.18348 5.79265 9.27341L10.617 13.3232C10.8928 13.5558 11.1175 13.4659 11.1175 13.1248V1.17373C11.1175 0.832625 10.8145 0.556641 10.4366 0.556641ZM10.0961 11.6239L6.4838 8.5912C6.23185 8.38033 5.91522 8.2749 5.59518 8.2749C5.26834 8.2749 4.9449 8.38343 4.69295 8.6005L1.24405 11.5805V1.48693H10.0961V11.6239Z" fill="white"/>
</svg>
