<svg width="13" height="14" viewBox="0 0 13 14" fill="none" xmlns="http://www.w3.org/2000/svg">
<path fill-rule="evenodd" clip-rule="evenodd" d="M1.14917 8.47564C0.162875 4.65836 3.01564 1.23309 6.66757 1.23309C7.17619 1.23309 7.70287 1.30106 8.23956 1.44066C10.1899 1.9597 11.7184 3.53114 12.2023 5.48868C12.5599 6.9409 12.3656 8.32867 11.7868 9.48918C11.6963 9.67016 11.6669 9.88312 11.7225 10.0865C11.7226 10.0867 11.7227 10.0869 11.7227 10.0872L12.3783 12.532L9.99985 11.8958C9.99948 11.8957 9.9991 11.8956 9.99873 11.8955C9.92518 11.8752 9.85372 11.8677 9.78607 11.8677C9.64318 11.8677 9.50143 11.907 9.37752 11.9744C8.56851 12.4102 7.64914 12.6629 6.66757 12.6629C6.21034 12.6629 5.73893 12.6084 5.2586 12.4911L5.25826 12.491C4.38664 12.2795 3.47127 11.7187 2.71306 10.9794C1.95477 10.2401 1.37375 9.34176 1.14917 8.47564ZM6.66757 2.05375C5.14209 2.05375 3.73139 2.74551 2.79536 3.95477C1.86098 5.16191 1.54816 6.73302 1.94438 8.26914C2.12901 8.98391 2.62913 9.75141 3.28338 10.3902C3.9374 11.0288 4.72189 11.5157 5.45067 11.693C5.856 11.7909 6.26527 11.8422 6.66757 11.8422C7.48419 11.8422 8.26206 11.6451 8.98461 11.2554C9.23159 11.1222 9.50914 11.0498 9.78607 11.0498C9.93152 11.0498 10.0726 11.0697 10.2088 11.1054L10.2098 11.1056L11.2185 11.3748L10.9301 10.2983C10.8245 9.90568 10.8713 9.4891 11.0538 9.12413C11.5803 8.06828 11.7032 6.88179 11.4072 5.68701C10.9884 4.00085 9.69447 2.67823 8.02963 2.23571L8.02888 2.23551C7.57554 2.11335 7.11722 2.05375 6.66757 2.05375Z" fill="white"/>
<path fill-rule="evenodd" clip-rule="evenodd" d="M6.66757 0.777466C2.72418 0.777466 -0.354428 4.47774 0.708047 8.58969C0.958905 9.55729 1.59475 10.5254 2.39498 11.3056C3.19522 12.0859 4.17996 12.6981 5.15046 12.9337C5.66624 13.0597 6.17396 13.1185 6.66757 13.1185C7.72893 13.1185 8.72235 12.8449 9.59415 12.3753L9.59519 12.3747C9.65794 12.3405 9.7254 12.3233 9.78607 12.3233C9.81995 12.3233 9.84997 12.327 9.8779 12.3348L12.3943 13.0079L12.4015 13.0094L12.4035 13.0098C12.4138 13.0119 12.4499 13.0194 12.4858 13.0194C12.7239 13.0194 12.9178 12.7951 12.8536 12.5453L12.1625 9.96786L12.1621 9.96655C12.1387 9.88146 12.1491 9.78323 12.1944 9.69275C12.821 8.43666 13.0284 6.93793 12.6446 5.37933C12.1212 3.26206 10.4692 1.5623 8.35613 1.00019L8.35493 0.999876C7.78254 0.850938 7.21711 0.777466 6.66757 0.777466ZM6.66757 1.23309C3.01564 1.23309 0.162875 4.65836 1.14917 8.47564C1.37375 9.34176 1.95477 10.2401 2.71306 10.9794C3.47127 11.7187 4.38664 12.2795 5.25826 12.491L5.2586 12.4911C5.73893 12.6084 6.21034 12.6629 6.66757 12.6629C7.64914 12.6629 8.56851 12.4102 9.37752 11.9744C9.50143 11.907 9.64318 11.8677 9.78607 11.8677C9.85372 11.8677 9.92518 11.8752 9.99873 11.8955L9.99985 11.8958L12.3783 12.532L11.7227 10.0872L11.7225 10.0865C11.6669 9.88312 11.6963 9.67016 11.7868 9.48918C12.3656 8.32867 12.5599 6.9409 12.2023 5.48868C11.7184 3.53114 10.1899 1.9597 8.23956 1.44066C7.70287 1.30106 7.17619 1.23309 6.66757 1.23309Z" fill="white"/>
</svg>
