<svg width="14" height="12" viewBox="0 0 14 12" fill="none" xmlns="http://www.w3.org/2000/svg">
<path d="M6.68714 11.3344C6.45007 11.3344 6.22378 11.2603 6.03251 11.1201C4.73404 10.1702 1.63063 7.80736 0.852088 6.37591C-0.166217 4.50524 0.445305 2.10274 2.21252 1.02056C2.78364 0.671299 3.43018 0.486084 4.0875 0.486084C5.07078 0.486084 5.9948 0.882973 6.68714 1.58943C7.37948 0.882973 8.3035 0.486084 9.28678 0.486084C9.9441 0.486084 10.5906 0.671299 11.1618 1.02056C12.929 2.10274 13.5405 4.50524 12.5249 6.37591C11.7463 7.80736 8.64293 10.1702 7.34446 11.1201C7.15049 11.2603 6.9242 11.3344 6.68714 11.3344ZM4.0875 1.27986C3.58104 1.27986 3.08266 1.42274 2.64086 1.69263C1.22654 2.56049 0.741637 4.49202 1.56329 6.00019C2.28526 7.32845 5.53414 9.76799 6.51203 10.4824C6.6144 10.5565 6.75718 10.5565 6.85955 10.4824C7.83745 9.76534 11.0863 7.3258 11.8083 6.00019C12.6299 4.49202 12.145 2.55784 10.7307 1.69263C10.2916 1.42274 9.79324 1.27986 9.28678 1.27986C8.40048 1.27986 7.57075 1.70321 7.01041 2.43878L6.68714 2.86742L6.36387 2.43878C5.80353 1.70321 4.97649 1.27986 4.0875 1.27986Z" fill="white"/>
</svg>
