<svg width="165" height="65" viewBox="0 0 165 65" fill="none" xmlns="http://www.w3.org/2000/svg">
<g clip-path="url(#clip0_31_33)">
<path fill-rule="evenodd" clip-rule="evenodd" d="M110.387 18.629V23.2171H102.492V36.3248C102.492 39.1092 104.136 40.5016 106.866 40.5016C108.341 40.4751 109.799 40.2651 111.213 39.871L111.933 44.5119C110.591 45.0283 108.226 45.3872 106.074 45.3872C100.474 45.3872 96.9532 42.3052 96.9532 36.9815V23.2171H92.1882V18.629H97.0423V10.2231H102.42V18.629H110.387ZM80.071 29.0311C76.6926 28.3481 75.4391 27.5251 75.4391 25.8877C75.4391 23.9526 77.4479 22.8318 81.4931 22.8318C84.2759 22.8318 87.4669 23.436 89.6364 24.3641L90.2228 19.6709C87.9918 18.7165 84.5069 18.0861 81.2176 18.0861C74.5233 18.0861 70.0605 21.3608 70.0605 25.8089C70.0605 29.8542 72.5675 32.4898 77.2791 33.4266L81.2353 34.2147C84.6933 34.8976 86.1423 35.852 86.1423 37.6294C86.1423 39.652 84.2667 40.6328 80.2575 40.6328C77.1103 40.5977 73.9989 39.9497 71.1008 38.7415L70.434 43.4172C72.7454 44.6432 76.5414 45.3786 80.6129 45.3786C87.1116 45.3786 91.5121 42.8393 91.5121 37.542C91.5121 32.98 88.6142 30.7473 83.173 29.6528L80.071 29.0311ZM111.134 31.7367C111.134 24.0664 117.215 18.0861 125.359 18.0861C133.501 18.0861 139.582 24.0664 139.582 31.7367C139.582 39.4069 133.51 45.3872 125.367 45.3872C117.224 45.3872 111.143 39.4069 111.143 31.7367H111.134ZM116.655 31.7367C116.655 36.57 120.317 40.309 125.367 40.309C130.417 40.309 134.071 36.5612 134.071 31.7367C134.071 26.9034 130.417 23.1646 125.367 23.1646C120.317 23.1646 116.663 26.9034 116.663 31.7367H116.655ZM144.169 18.6289L151.102 27.8577L158.045 18.6289H164.402L154.534 31.4564L164.625 44.8357H158.277L151.102 35.0377L143.938 44.8357H137.582L147.671 31.4564L137.803 18.6289H144.169ZM45.9688 22.2101C47.9511 19.7235 50.9649 18.0861 55.5075 18.0861C63.1174 18.0861 68.9493 23.8212 68.9493 31.8768C68.9493 39.9323 63.1174 45.3872 55.5075 45.3872C50.9649 45.3872 47.9511 43.7501 45.9688 41.2633V55.7634H40.4481V18.6377H45.9688V22.2101ZM46.0042 31.8768C46.0042 36.7102 49.7114 40.5277 54.841 40.5277C59.9969 40.5277 63.4286 36.7015 63.4375 31.8768C63.4375 27.0435 60.0061 22.9457 54.8498 22.9457H54.841C49.6848 22.9544 46.0042 27.0435 46.0042 31.8768ZM12.0636 32.6735C12.8727 32.1132 13.6372 31.4827 14.3395 30.791C15.6552 29.5039 16.7487 28.0241 17.5843 26.4043V33.3916C17.5843 37.7346 20.0113 40.2387 24.1096 40.2387C28.3234 40.2387 31.6393 37.7346 31.6393 33.3916V18.6289H37.1511V44.8357H31.6039V41.5347C30.7147 42.8744 28.1723 45.3786 23.2384 45.3786C15.9308 45.3786 12.0547 40.9041 12.0547 34.5386L12.0636 32.6735ZM0 35.6768V30.4232C3.21818 30.4145 6.30299 29.1711 8.59658 26.9734C9.71674 25.8789 10.6146 24.583 11.2281 23.1557C11.8414 21.7197 12.1615 20.1874 12.1615 18.6376H17.5755C17.5755 20.8791 17.1221 23.0944 16.2331 25.1609C15.353 27.2273 14.055 29.101 12.4282 30.6771C9.11222 33.8819 4.64946 35.6768 0 35.6768Z" fill="#41246E"/>
</g>
<defs>
<clipPath id="clip0_31_33">
<rect width="165" height="46" fill="white" transform="translate(0 10)"/>
</clipPath>
</defs>
</svg>
