<svg width="28" height="28" viewBox="0 0 28 28" fill="none" xmlns="http://www.w3.org/2000/svg">
<path fill-rule="evenodd" clip-rule="evenodd" d="M13.9993 1.1665C6.91169 1.1665 1.16602 6.91218 1.16602 13.9998C1.16602 21.0875 6.91169 26.8332 13.9993 26.8332C21.087 26.8332 26.8327 21.0875 26.8327 13.9998C26.8327 6.91218 21.087 1.1665 13.9993 1.1665ZM0.166016 13.9998C0.166016 6.3599 6.35941 0.166504 13.9993 0.166504C21.6393 0.166504 27.8327 6.3599 27.8327 13.9998C27.8327 21.6398 21.6393 27.8332 13.9993 27.8332C6.35941 27.8332 0.166016 21.6398 0.166016 13.9998Z" fill="black"/>
<path fill-rule="evenodd" clip-rule="evenodd" d="M10.3125 10.313C10.5077 10.1177 10.8243 10.1177 11.0196 10.3129L13.9994 13.2927L16.9792 10.313C17.1744 10.1177 17.491 10.1177 17.6863 10.313C17.8815 10.5082 17.8815 10.8248 17.6863 11.0201L14.7065 13.9999L17.6863 16.9796C17.8815 17.1749 17.8815 17.4915 17.6863 17.6867C17.491 17.882 17.1744 17.882 16.9792 17.6867L13.9994 14.707L11.0196 17.6867C10.8243 17.882 10.5077 17.882 10.3125 17.6867C10.1172 17.4915 10.1172 17.1749 10.3125 16.9796L13.2923 13.9999L10.3125 11.0201C10.1172 10.8248 10.1172 10.5082 10.3125 10.313Z" fill="black"/>
</svg>
