<svg width="21" height="21" viewBox="0 0 21 21" fill="none" xmlns="http://www.w3.org/2000/svg">
<path d="M8.61882 4.30031V15.5503C8.61882 16.4503 8.25214 17.2753 7.66881 17.8753L7.63549 17.9086C7.56049 17.9836 7.47716 18.0586 7.40216 18.117C7.15216 18.3336 6.86881 18.5003 6.57714 18.617C6.48547 18.6586 6.39382 18.692 6.30215 18.7253C5.97715 18.8336 5.62715 18.8836 5.28548 18.8836C5.06048 18.8836 4.83549 18.8586 4.61882 18.817C4.51049 18.792 4.40215 18.767 4.29382 18.7336C4.16048 18.692 4.03549 18.6503 3.91049 18.592C3.91049 18.5836 3.91048 18.5836 3.90215 18.592C3.66882 18.4753 3.44382 18.342 3.23549 18.1836L3.22715 18.1753C3.11882 18.092 3.01882 18.0086 2.92716 17.9086C2.83549 17.8086 2.74382 17.7086 2.65215 17.6003C2.49382 17.392 2.36049 17.167 2.24382 16.9336C2.25216 16.9253 2.25216 16.9253 2.24382 16.9253C2.24382 16.9253 2.24382 16.917 2.23548 16.9086C2.18548 16.792 2.14381 16.667 2.10214 16.542C2.06881 16.4336 2.04381 16.3253 2.01881 16.217C1.97714 16.0003 1.95215 15.7753 1.95215 15.5503V4.30031C1.95215 3.05031 2.78548 2.21698 4.03548 2.21698H6.53548C7.78548 2.21698 8.61882 3.05031 8.61882 4.30031Z" fill="#DB1215" stroke="black" stroke-linecap="round" stroke-linejoin="round"/>
<path opacity="0.4" d="M18.6195 14.3003V16.8003C18.6195 18.0503 17.7861 18.8836 16.5361 18.8836H5.28613C5.6278 18.8836 5.9778 18.8336 6.3028 18.7253C6.39447 18.692 6.48612 18.6586 6.57779 18.617C6.86946 18.5003 7.15281 18.3336 7.40281 18.117C7.47781 18.0586 7.56114 17.9836 7.63614 17.9086L7.66946 17.8753L13.3361 12.217H16.5361C17.7861 12.217 18.6195 13.0503 18.6195 14.3003Z" fill="#07038D" fill-opacity="0.7" stroke="black" stroke-linecap="round" stroke-linejoin="round"/>
<path d="M4.29421 18.7329C3.79421 18.5829 3.31922 18.3079 2.92756 17.9079C2.52756 17.5162 2.25254 17.0412 2.10254 16.5412C2.42754 17.5829 3.25254 18.4079 4.29421 18.7329Z" stroke="black" stroke-linecap="round" stroke-linejoin="round"/>
<path d="M15.594 9.95822L13.3356 12.2166L7.66895 17.8749C8.25227 17.2749 8.61895 16.45 8.61895 15.55V7.49993L10.8773 5.2416C11.7606 4.35827 12.944 4.35827 13.8273 5.2416L15.594 7.00827C16.4773 7.8916 16.4773 9.07488 15.594 9.95822Z" fill="#FDCF41" fill-opacity="0.5" stroke="black" stroke-linecap="round" stroke-linejoin="round"/>
<path opacity="0.4" d="M5.28548 16.3836C5.74572 16.3836 6.11882 16.0106 6.11882 15.5503C6.11882 15.0901 5.74572 14.717 5.28548 14.717C4.82525 14.717 4.45215 15.0901 4.45215 15.5503C4.45215 16.0106 4.82525 16.3836 5.28548 16.3836Z" stroke="black" stroke-linecap="round" stroke-linejoin="round"/>
</svg>
