<svg width="33" height="33" viewBox="0 0 33 33" fill="none" xmlns="http://www.w3.org/2000/svg">
<g id="SVG">
<g id="Group 48095429">
<path id="Vector" d="M16.599 29.0002C17.8597 29.0002 19.1081 28.7519 20.2728 28.2694C21.4375 27.787 22.4958 27.0798 23.3872 26.1884C24.2787 25.297 24.9858 24.2387 25.4683 23.0739C25.9507 21.9092 26.199 20.6609 26.199 19.4002C26.199 18.1395 25.9507 16.8911 25.4683 15.7264C24.9858 14.5617 24.2787 13.5034 23.3872 12.6119C22.4958 11.7205 21.4375 11.0134 20.2728 10.5309C19.1081 10.0485 17.8597 9.80017 16.599 9.80017C14.0529 9.80017 11.6111 10.8116 9.8108 12.6119C8.01045 14.4123 6.99902 16.8541 6.99902 19.4002C6.99902 21.9462 8.01045 24.388 9.8108 26.1884C11.6111 27.9887 14.0529 29.0002 16.599 29.0002Z" stroke="#E66A2A" stroke-width="1.5" stroke-linecap="round" stroke-linejoin="round"/>
<path id="Vector_2" d="M22.9986 12.2002L24.9986 10.2002M24.5986 9.80018L25.3986 10.6002M16.5986 9.80018V5.00018M18.9986 5.00018H14.1986M16.5986 20.2002L12.5986 15.7724" stroke="#E66A2A" stroke-width="1.5" stroke-linecap="round" stroke-linejoin="round"/>
</g>
</g>
</svg>
