<svg width="41" height="42" viewBox="0 0 41 42" fill="none" xmlns="http://www.w3.org/2000/svg">
<g clip-path="url(#clip0_168_2774)">
<path d="M20.6406 6.88965L26.5 1.03027L28.8438 3.37402L22.9844 9.2334L30.0547 16.3037L27.7109 18.6865L12.4375 3.37402L14.7812 1.03027L20.6406 6.88965ZM34.7812 21.0303L40.6406 26.8896L38.2969 29.2334L32.4375 23.374L25.3672 30.4443L22.9844 28.1006L38.2969 12.8271L40.6406 15.1709L34.7812 21.0303ZM20.6406 35.1709L14.7812 41.0303L12.4375 38.6865L18.2969 32.8271L11.2266 25.7568L13.5703 23.374L28.8438 38.6865L26.5 41.0303L20.6406 35.1709ZM6.5 21.0303L0.640625 15.1709L2.98438 12.8271L8.84375 18.6865L15.9141 11.6162L18.2969 13.96L2.98438 29.2334L0.640625 26.8896L6.5 21.0303Z" fill="black"/>
</g>
<defs>
<clipPath id="clip0_168_2774">
<rect width="40" height="41" fill="white" transform="matrix(1 0 0 -1 0.640625 41.5303)"/>
</clipPath>
</defs>
</svg>
