<svg width="21" height="21" viewBox="0 0 21 21" fill="none" xmlns="http://www.w3.org/2000/svg">
<path d="M10.2855 18.8836C14.8879 18.8836 18.6188 15.1527 18.6188 10.5503C18.6188 5.94794 14.8879 2.21698 10.2855 2.21698C5.68311 2.21698 1.95215 5.94794 1.95215 10.5503C1.95215 15.1527 5.68311 18.8836 10.2855 18.8836Z" stroke="black" stroke-width="1.2"/>
<path d="M8.72363 7.9455C8.72363 7.08255 9.42322 6.383 10.2861 6.383C11.149 6.383 11.8486 7.08255 11.8486 7.9455C11.8486 8.51837 11.5403 9.01925 11.0806 9.29125C10.6845 9.52558 10.2861 9.88108 10.2861 10.3413V11.383" stroke="black" stroke-width="1.2" stroke-linecap="round"/>
<path d="M10.5188 13.8833C10.5188 14.0122 10.4143 14.1167 10.2855 14.1167C10.1566 14.1167 10.0521 14.0122 10.0521 13.8833C10.0521 13.7545 10.1566 13.65 10.2855 13.65C10.4143 13.65 10.5188 13.7545 10.5188 13.8833Z" stroke="black" stroke-width="1.2"/>
</svg>
