<svg width="33" height="33" viewBox="0 0 33 33" fill="none" xmlns="http://www.w3.org/2000/svg">
<g clip-path="url(#clip0_828_1473)">
<path d="M16.8949 23.1799L10.5869 20.0325V13.0147L16.8949 9.92094L23.203 13.0147V20.0325L16.8949 23.1799ZM11.7655 19.3093L16.8949 21.8808L22.0244 19.3093V13.7513L16.8949 11.22L11.7655 13.7513V19.3093ZM17.4842 22.537H16.3057V16.5638L10.9217 13.912L11.4307 12.854L17.4842 15.8272V22.537ZM17.4842 22.537H16.3057V15.8272L22.3592 12.854L22.8682 13.912L17.4842 16.5638V22.537ZM16.8949 16.845L10.9217 13.912L11.4307 12.854L16.8949 15.5459L22.3592 12.854L22.8682 13.912L16.8949 16.845Z" fill="#EC691F"/>
</g>
<path d="M28.2319 13.9152C28.8176 16.3921 28.5838 18.9921 27.5659 21.3248C26.5479 23.6575 24.8006 25.597 22.5864 26.852C20.3722 28.1071 17.8106 28.6099 15.2863 28.285C12.762 27.9601 10.4112 26.825 8.58691 25.0502" stroke="#E66A2A" stroke-width="1.5" stroke-linecap="round"/>
<path d="M5.28553 19.1353C5.10899 18.3137 5.02016 17.4757 5.02053 16.6353C5.01588 14.3265 5.69123 12.0675 6.9623 10.1401C8.23338 8.21267 10.0439 6.70225 12.1679 5.79728C14.292 4.89231 16.6355 4.63286 18.906 5.05132C21.1766 5.46978 23.2736 6.5476 24.9355 8.15031" stroke="#E66A2A" stroke-width="1.5" stroke-linecap="round"/>
<path d="M19.6514 8.66998L25.0964 8.26998L24.6714 3.16998" stroke="#E66A2A" stroke-width="1.5" stroke-linecap="round"/>
<path d="M13.7418 24.4299L8.30176 24.8299L8.72676 29.9299" stroke="#E66A2A" stroke-width="1.5" stroke-linecap="round"/>
<defs>
<clipPath id="clip0_828_1473">
<rect width="12.8366" height="13.7143" fill="white" transform="matrix(1 0 0 -1 10.4775 23.4074)"/>
</clipPath>
</defs>
</svg>
