<svg width="21" height="21" viewBox="0 0 21 21" fill="none" xmlns="http://www.w3.org/2000/svg">
<path d="M19.6611 11.8V5.54999C19.6611 5.21847 19.5294 4.90052 19.295 4.6661C19.0606 4.43168 18.7427 4.29999 18.4111 4.29999H8.41113C8.07961 4.29999 7.76167 4.43168 7.52725 4.6661C7.29283 4.90052 7.16113 5.21847 7.16113 5.54999M7.16113 5.54999V10.55M7.16113 5.54999H4.66113C3.66657 5.54999 2.71274 5.94508 2.00948 6.64834C1.30622 7.3516 0.911133 8.30543 0.911133 9.29999V14.3C0.911133 14.6315 1.04283 14.9494 1.27725 15.1839C1.51167 15.4183 1.82961 15.55 2.16113 15.55H2.78613" stroke="black" stroke-width="1.33333" stroke-linecap="round" stroke-linejoin="round"/>
<path d="M0.911133 10.55H3.41113C3.74265 10.55 4.0606 10.4183 4.29502 10.1839C4.52944 9.94945 4.66113 9.63151 4.66113 9.29999V5.54999" stroke="black" stroke-width="1.33333" stroke-linecap="round" stroke-linejoin="round"/>
<path d="M6.53613 16.8C7.03341 16.8 7.51033 16.6024 7.86196 16.2508C8.21359 15.8992 8.41113 15.4223 8.41113 14.925C8.41113 14.4277 8.21359 13.9508 7.86196 13.5992C7.51033 13.2475 7.03341 13.05 6.53613 13.05C6.03885 13.05 5.56194 13.2475 5.21031 13.5992C4.85868 13.9508 4.66113 14.4277 4.66113 14.925C4.66113 15.4223 4.85868 15.8992 5.21031 16.2508C5.56194 16.6024 6.03885 16.8 6.53613 16.8ZM16.5361 16.8C17.0334 16.8 17.5103 16.6024 17.862 16.2508C18.2136 15.8992 18.4111 15.4223 18.4111 14.925C18.4111 14.4277 18.2136 13.9508 17.862 13.5992C17.5103 13.2475 17.0334 13.05 16.5361 13.05C16.0389 13.05 15.5619 13.2475 15.2103 13.5992C14.8587 13.9508 14.6611 14.4277 14.6611 14.925C14.6611 15.4223 14.8587 15.8992 15.2103 16.2508C15.5619 16.6024 16.0389 16.8 16.5361 16.8Z" stroke="black" stroke-width="1.33333" stroke-linecap="round" stroke-linejoin="round"/>
<path d="M10.2861 15.55H12.7861" stroke="black" stroke-width="1.33333" stroke-linecap="round" stroke-linejoin="round"/>
</svg>
