<svg width="40" height="40" viewBox="0 0 40 40" fill="none" xmlns="http://www.w3.org/2000/svg">
<path fill-rule="evenodd" clip-rule="evenodd" d="M15.604 5.89735C12.6706 5.89735 10.2926 8.27533 10.2926 11.2087C10.2926 14.1421 12.6706 16.5201 15.604 16.5201C18.5374 16.5201 20.9152 14.1421 20.9152 11.2087C20.9152 8.27533 18.5374 5.89735 15.604 5.89735ZM7.72852 11.2087C7.72852 6.85922 11.2545 3.33325 15.604 3.33325C19.9534 3.33325 23.4794 6.85922 23.4794 11.2087C23.4794 15.5582 19.9534 19.0843 15.604 19.0843C11.2545 19.0843 7.72852 15.5582 7.72852 11.2087Z" fill="black"/>
<path fill-rule="evenodd" clip-rule="evenodd" d="M12.3532 25.6777C8.78813 25.6777 5.89808 28.5677 5.89808 32.1329C5.89808 32.3102 5.92868 32.4327 5.95942 32.5022C5.98417 32.558 6.00242 32.5687 6.0105 32.5734C6.88987 33.0902 9.41954 34.1025 15.6051 34.1025C21.7905 34.1025 24.3195 33.0905 25.1988 32.5739C25.207 32.569 25.226 32.558 25.2507 32.5022C25.2815 32.4327 25.312 32.3102 25.312 32.1329C25.312 28.5677 22.422 25.6777 18.8568 25.6777H12.3532ZM3.33398 32.1329C3.33398 27.1517 7.37202 23.1135 12.3532 23.1135H18.8568C23.838 23.1135 27.8762 27.1517 27.8762 32.1329C27.8762 32.9907 27.5862 34.1449 26.498 34.7844C25.0642 35.6272 22.0155 36.6667 15.6051 36.6667C9.19463 36.6667 6.14602 35.6272 4.71203 34.7844C3.62395 34.1449 3.33398 32.9907 3.33398 32.1329Z" fill="black"/>
<path fill-rule="evenodd" clip-rule="evenodd" d="M25.9045 6.47864C26.0893 5.7951 26.7932 5.39075 27.4767 5.57549C30.3047 6.33982 32.2703 9.13244 32.2703 12.3076C32.2703 15.6627 29.9708 18.6876 26.7457 19.0751C26.0427 19.1595 25.4043 18.6581 25.3198 17.9551C25.2353 17.2521 25.7368 16.6137 26.4398 16.5293C28.1597 16.3227 29.7063 14.5956 29.7063 12.3076C29.7063 10.1368 28.3753 8.47445 26.8077 8.05079C26.1242 7.86605 25.7198 7.16217 25.9045 6.47864Z" fill="black"/>
<path fill-rule="evenodd" clip-rule="evenodd" d="M29.731 24.1501C29.8665 23.4551 30.5398 23.0016 31.2348 23.1373C34.3898 23.7526 36.667 26.5166 36.667 29.7313V30.6224C36.667 31.4114 36.4303 32.5353 35.401 33.1931C34.708 33.6361 33.6333 34.1081 31.9761 34.4433C31.2821 34.5838 30.6058 34.1349 30.4653 33.4409C30.325 32.7469 30.7736 32.0706 31.4676 31.9301C32.8815 31.6441 33.6455 31.2721 34.02 31.0328L34.023 31.0298C34.0258 31.0263 34.0358 31.0128 34.0481 30.9826C34.0755 30.9163 34.1028 30.7973 34.1028 30.6224V29.7313C34.1028 27.7436 32.6948 26.0344 30.744 25.6539C30.049 25.5183 29.5955 24.8451 29.731 24.1501Z" fill="black"/>
</svg>
